<svg width="63" height="63" viewBox="0 0 63 63" fill="none" xmlns="http://www.w3.org/2000/svg">
<path d="M55.6172 0H7.38281C3.31193 0 0 3.31193 0 7.38281V55.6172C0 59.6881 3.31193 63 7.38281 63H55.6172C59.6881 63 63 59.6881 63 55.6172V7.38281C63 3.31193 59.6881 0 55.6172 0ZM58.0781 55.6172C58.0781 56.9741 56.9741 58.0781 55.6172 58.0781H41.5898V38.0215H49.1929L50.4492 30.3926H41.5898V25.1016C41.5898 23.0128 43.1925 21.4102 45.2812 21.4102H50.3262V13.7812H45.2812C39.0153 13.7812 33.9636 18.8569 33.9636 25.123V30.3926H26.5781V38.0215H33.9636V58.0781H7.38281C6.02585 58.0781 4.92188 56.9741 4.92188 55.6172V7.38281C4.92188 6.02585 6.02585 4.92188 7.38281 4.92188H55.6172C56.9741 4.92188 58.0781 6.02585 58.0781 7.38281V55.6172Z" fill="white"/>
</svg>
