<svg width="63" height="63" viewBox="0 0 63 63" fill="none" xmlns="http://www.w3.org/2000/svg">
<path d="M43.3125 0H19.6875C8.81606 0 0 8.81606 0 19.6875V43.3125C0 54.1839 8.81606 63 19.6875 63H43.3125C54.1839 63 63 54.1839 63 43.3125V19.6875C63 8.81606 54.1839 0 43.3125 0ZM57.0938 43.3125C57.0938 50.9119 50.9119 57.0938 43.3125 57.0938H19.6875C12.0881 57.0938 5.90625 50.9119 5.90625 43.3125V19.6875C5.90625 12.0881 12.0881 5.90625 19.6875 5.90625H43.3125C50.9119 5.90625 57.0938 12.0881 57.0938 19.6875V43.3125Z" fill="white"/>
<path d="M31.5 15.75C22.8021 15.75 15.75 22.8021 15.75 31.5C15.75 40.1979 22.8021 47.25 31.5 47.25C40.1979 47.25 47.25 40.1979 47.25 31.5C47.25 22.8021 40.1979 15.75 31.5 15.75ZM31.5 41.3438C26.0741 41.3438 21.6562 36.9259 21.6562 31.5C21.6562 26.0702 26.0741 21.6562 31.5 21.6562C36.9259 21.6562 41.3438 26.0702 41.3438 31.5C41.3438 36.9259 36.9259 41.3438 31.5 41.3438Z" fill="white"/>
<path d="M48.4313 16.6671C49.5904 16.6671 50.53 15.7275 50.53 14.5684C50.53 13.4093 49.5904 12.4697 48.4313 12.4697C47.2723 12.4697 46.3326 13.4093 46.3326 14.5684C46.3326 15.7275 47.2723 16.6671 48.4313 16.6671Z" fill="white"/>
</svg>
