<svg width="86" height="86" viewBox="0 0 86 86" fill="none" xmlns="http://www.w3.org/2000/svg">
<g clip-path="url(#clip0)">
<path d="M0.272038 7.889L6.00755 17.9256C6.20102 18.2647 6.52483 18.5101 6.9035 18.605L12.2544 19.9428L30.607 38.2954L32.6349 36.2681L13.995 17.6289C13.8116 17.4448 13.5816 17.3145 13.3297 17.2514L8.18816 15.9614L3.30495 7.41123L7.49157 3.22461L16.0453 8.11254L17.3358 13.2541C17.3984 13.5065 17.5293 13.7372 17.7127 13.9206L36.3526 32.5604L38.3798 30.5326L20.0272 12.18L18.6895 6.83202C18.5945 6.45276 18.3492 6.12835 18.01 5.9343L7.97287 0.199372C7.41312 -0.119137 6.70886 -0.0247638 6.25233 0.429996L0.517408 6.16551C0.0561601 6.61909 -0.0441111 7.32453 0.272038 7.889Z" fill="white"/>
<path d="M59.8834 28.2582L28.3398 59.8023L26.312 57.7745L57.8562 26.231L59.8834 28.2582Z" fill="white"/>
<path d="M22.8189 60.9183C22.5594 60.4865 22.0934 60.2228 21.5897 60.2228H12.987C12.4839 60.2228 12.0173 60.4865 11.7584 60.9183L7.45677 68.0871C7.18368 68.5412 7.18368 69.1092 7.45677 69.564L11.7584 76.7328C12.0173 77.164 12.4839 77.4282 12.987 77.4282H21.5897C22.0934 77.4282 22.5594 77.164 22.8189 76.7328L27.12 69.564C27.393 69.1092 27.393 68.5412 27.12 68.0871L22.8189 60.9183ZM20.7787 74.5605H13.7986L10.3576 68.8255L13.7986 63.09H20.7787L24.2198 68.8255L20.7787 74.5605Z" fill="white"/>
<path d="M68.9054 34.4142C78.3751 34.4461 86.0783 26.7948 86.1102 17.3251C86.1149 15.8835 85.9379 14.4479 85.5834 13.0506C85.3923 12.282 84.6143 11.8143 83.8458 12.0054C83.5933 12.0685 83.3633 12.1988 83.1793 12.3823L74.254 21.3017L67.1725 18.9418L64.8108 11.8621L73.7361 2.93496C74.2958 2.37463 74.2952 1.46688 73.7349 0.907127C73.5503 0.72251 73.3179 0.591567 73.0637 0.529045C63.88 -1.79666 54.5507 3.7625 52.225 12.9456C51.8717 14.3388 51.6953 15.7709 51.7 17.2083C51.7036 18.3372 51.8198 19.4626 52.0486 20.568L20.6478 51.9682C19.5425 51.7399 18.4171 51.6237 17.2887 51.6196C7.78595 51.6196 0.0827637 59.3228 0.0827637 68.8255C0.0827637 78.3277 7.78595 86.0309 17.2887 86.0309C26.7909 86.0309 34.4941 78.3277 34.4941 68.8255C34.4905 67.6966 34.3737 66.5712 34.1455 65.4659L41.6629 57.9485L44.9506 61.2362C45.5109 61.7959 46.4181 61.7959 46.9784 61.2362L47.6951 60.519C48.3238 59.8943 49.3401 59.8943 49.9689 60.519C50.597 61.1454 50.5982 62.1622 49.9718 62.7904C49.9712 62.791 49.97 62.7922 49.9689 62.7933L49.2522 63.51C48.6925 64.0697 48.6925 64.9775 49.2522 65.5372L66.3561 82.6411C70.8548 87.1811 78.1816 87.2141 82.7216 82.7155C87.2609 78.2168 87.2939 70.8894 82.7953 66.35C82.7711 66.3252 82.7463 66.3005 82.7216 66.2757L65.6177 49.1724C65.0579 48.6126 64.1502 48.6126 63.5904 49.1724L62.8738 49.889C62.2444 50.5142 61.2287 50.5142 60.5994 49.889C59.9718 49.2626 59.97 48.2458 60.5964 47.6182C60.5976 47.617 60.5988 47.6164 60.5994 47.6152L61.3166 46.898C61.8764 46.3382 61.8764 45.4305 61.3166 44.8707L58.0289 41.583L65.5463 34.0656C66.6516 34.2939 67.777 34.4107 68.9054 34.4142ZM74.5389 83.1637C73.4972 83.162 72.4644 82.9738 71.4894 82.6075L82.6874 71.409C84.3772 75.9041 82.1034 80.9177 77.6083 82.6075C76.6274 82.9762 75.5876 83.1649 74.5389 83.1637ZM58.2955 45.8988C56.7077 47.7928 56.9566 50.6157 58.8505 52.2029C60.515 53.5979 62.941 53.5967 64.6037 52.1988L80.6943 68.3035C80.8689 68.4787 81.0323 68.6633 81.1904 68.8509L68.9313 81.1099C68.7432 80.9525 68.5586 80.7891 68.3834 80.6139L52.2804 64.5098C53.8682 62.6158 53.6193 59.7929 51.7254 58.2056C50.0609 56.8101 47.6343 56.8119 45.9716 58.2092L43.6777 55.9153L56.0011 43.6103L58.2955 45.8988ZM64.0853 31.4781L31.5591 63.9978C31.2022 64.354 31.0589 64.8713 31.1804 65.3603C33.1475 73.0853 28.4796 80.9424 20.754 82.9089C13.029 84.876 5.17182 80.2081 3.20474 72.4825C1.23824 64.7575 5.90616 56.9003 13.6318 54.9333C15.9687 54.3387 18.4171 54.3387 20.754 54.9333C21.2429 55.053 21.759 54.9097 22.1165 54.5552L54.635 22.0349C54.9913 21.6786 55.1346 21.1613 55.0119 20.6729C53.0584 13.0382 57.6638 5.26539 65.2986 3.31128C66.7413 2.94263 68.2336 2.80107 69.7199 2.89368L62.1565 10.46C61.7726 10.8434 61.6381 11.4114 61.8097 11.9263L64.6769 20.5296C64.8202 20.9572 65.1564 21.2934 65.5846 21.4356L74.1879 24.3034C74.7022 24.475 75.2702 24.3411 75.6542 23.9577L83.2176 16.3943C83.2347 16.668 83.2436 16.9387 83.2436 17.2083C83.2837 25.0866 76.93 31.5058 69.0517 31.5465C67.8337 31.5524 66.6198 31.4026 65.4401 31.1006C64.9512 30.9785 64.4339 31.1212 64.0776 31.4775H64.0853V31.4781Z" fill="white"/>
<path d="M74.2221 72.1127L72.1943 74.1405L57.8567 59.8029L59.8839 57.7751L74.2221 72.1127Z" fill="white"/>
</g>
<defs>
<clipPath id="clip0">
<rect width="86" height="86" fill="white"/>
</clipPath>
</defs>
</svg>
