<svg width="144" height="118" viewBox="0 0 144 118" fill="none" xmlns="http://www.w3.org/2000/svg">
<path d="M132.141 50.246L131.937 49.6117C131.048 46.8422 129.841 44.2073 128.245 41.7029L127.833 41.0563L128.35 40.4906L133.283 35.0981C134.106 34.1956 134.051 32.937 133.125 32.0723C133.124 32.0714 133.123 32.0704 133.122 32.0695L123.406 23.1734L123.4 23.168C122.447 22.2816 120.831 22.195 119.746 23.005C119.746 23.0051 119.746 23.0053 119.746 23.0054L113.79 27.4716L113.288 27.8481L112.73 27.5597C109.983 26.1385 107.018 25.0059 103.978 24.1964L103.312 24.0191L103.241 23.3337L102.51 16.3224C102.51 16.3218 102.51 16.3212 102.51 16.3206C102.39 15.2221 101.324 14.2365 99.8498 14.2365H87.7157H86.7157V13.2365V3.30913C86.7157 2.13256 85.6146 1 84.0609 1C82.5072 1 81.4061 2.13256 81.4061 3.30913V19.8548V20.8548H80.4061H66.5909C60.9829 20.8548 55.6782 23.2533 52.2982 27.2492C52.2977 27.2498 52.2971 27.2504 52.2966 27.2511L37.2416 45.2163L37.0319 45.4665L36.7149 45.5448L11.3869 51.799L11.3865 51.7991C5.1983 53.3244 1.03492 58.3601 1 64.0346V72.7983C1.03485 79.6977 7.28681 85.4344 15.1675 85.4344H17.1411H17.8874L18.0998 86.1498C20.667 94.7965 30.5724 100.014 40.3291 97.6411C46.5694 96.094 51.4179 91.693 53.0594 86.1504L53.2715 85.4344H54.0183H80.4061H81.4061V86.4344V113.9C81.4061 115.077 82.5072 116.209 84.0609 116.209C85.6146 116.209 86.7157 115.077 86.7157 113.9V105.958V104.958H87.7157H99.8498C101.319 104.958 102.389 103.978 102.51 102.843C102.51 102.842 102.51 102.842 102.51 102.841L103.241 95.7954L103.312 95.1075L103.981 94.9315C107.059 94.1213 109.988 93.021 112.772 91.5996L113.327 91.3158L113.826 91.6901L119.782 96.1563L132.141 50.246ZM132.141 50.246L132.805 50.3024M132.141 50.246L132.805 50.3024M132.805 50.3024L140.586 50.9639C140.586 50.964 140.587 50.964 140.588 50.9641C142.034 51.0935 143 52.1688 143 53.2439V65.9178C143 67.0325 142.026 68.103 140.586 68.2309L132.913 68.8925L132.253 68.9494L132.048 69.5798C131.161 72.3113 129.917 74.9513 128.349 77.4673L127.948 78.1113M132.805 50.3024L127.948 78.1113M127.948 78.1113L128.46 78.6711M127.948 78.1113L128.46 78.6711M128.46 78.6711L133.393 84.0635L128.46 78.6711ZM137.69 63.7913L136.776 63.8698L129.832 64.4654L129.83 64.4655C128.631 64.5665 127.72 65.3654 127.503 66.2805L127.501 66.2896C126.555 70.1243 124.855 73.7485 122.48 77.0253M137.69 63.7913L122.518 39.4227L127.013 34.493L127.687 33.7542L126.948 33.0804L121.904 28.4807L121.292 27.9224L120.63 28.4201L115.26 32.4551C115.26 32.4554 115.259 32.4557 115.259 32.456C114.339 33.1413 113.057 33.2164 112.052 32.6261L112.05 32.6251C108.447 30.518 104.469 28.9893 100.267 28.1401L100.259 28.1386C99.0997 27.9136 98.3085 27.0352 98.2131 26.1061L98.2123 26.0991L97.5179 19.7786L97.42 18.8879H96.5239H87.7157H86.7157V19.8879V38.6506V39.8784L87.9181 39.6299C91.1463 38.9627 94.518 38.9623 97.7855 39.6303L97.7875 39.6307C110.077 42.1175 117.653 53.0805 114.96 63.9905L114.959 63.9934C112.291 74.944 100.224 81.9888 87.9141 79.4979L86.7157 79.2554V80.478V99.3069V100.307H87.7157H96.5604H97.4622L97.5551 99.4099L98.213 93.0564L98.213 93.0556C98.3094 92.1175 99.0722 91.2481 100.255 91.0239L100.259 91.0231C104.466 90.2069 108.45 88.6761 112.023 86.5307L112.03 86.5264C113.03 85.9148 114.341 85.9885 115.26 86.6735L115.263 86.6756L120.672 90.6797L121.331 91.1672L121.938 90.6172L127.055 85.9844L127.798 85.3114L127.123 84.5699L122.665 79.6728C121.949 78.8861 121.888 77.854 122.48 77.0253M137.69 63.7913V62.8734M137.69 63.7913V62.8734M122.48 77.0253C122.48 77.0261 122.479 77.0269 122.479 77.0277L121.669 76.4408M122.48 77.0253C122.481 77.0246 122.481 77.0239 122.482 77.0232L121.669 76.4408M121.669 76.4408C123.972 73.2641 125.616 69.7564 126.53 66.0502L121.669 76.4408ZM137.69 62.8734V56.2552V55.3403L136.779 55.2591L129.725 54.6304L129.719 54.6298C128.491 54.5288 127.606 53.7669 127.355 52.805C126.445 48.9668 124.742 45.3408 122.366 42.0968L122.361 42.0897M137.69 62.8734L122.361 42.0897M122.361 42.0897C121.745 41.2645 121.804 40.2085 122.518 39.4236L122.361 42.0897ZM80.4061 80.7831H81.4061V79.7831V26.5061V25.5061H80.4061H66.6274C62.7386 25.5061 59.013 27.1406 56.6146 29.9999L40.754 48.8272L40.7454 48.8374L40.737 48.8479C40.4248 49.2394 39.9377 49.5368 39.3363 49.6933L12.808 56.244L12.8023 56.2454C9.02153 57.2024 6.31558 60.3329 6.27316 64.0201H6.2731V64.0316L6.27305 72.7677L6.27314 72.7771C6.31566 77.3195 10.3636 80.8177 15.1345 80.7831H16.5929H17.4638L17.5834 79.9204C18.6089 72.5234 25.0639 66.6036 33.3685 65.6874C43.3742 64.6117 52.344 71.0451 53.5389 79.9166L53.6556 80.7831H54.5299H80.4061ZM87.4268 44.5763L86.7157 44.7909V45.5336V73.6281V74.3732L87.4297 74.5863C90.9422 75.6348 94.7593 75.6348 98.2718 74.5863L98.2736 74.5858C107.331 71.8638 112.382 62.9818 109.304 54.5873C106.249 46.2525 96.4214 41.8616 87.4268 44.5763ZM123.41 96.0176C122.455 96.8821 120.869 96.9669 119.784 96.1574L133.394 84.065C134.222 84.975 134.151 86.2927 133.242 87.116L123.41 96.0176ZM22.7563 81.934C22.7563 88.4677 28.5994 93.6225 35.5614 93.6225C42.5621 93.6225 48.3665 88.4658 48.3665 81.934C48.3665 75.4003 42.5235 70.2455 35.5614 70.2455C28.5994 70.2455 22.7563 75.4003 22.7563 81.934Z" stroke="white" stroke-width="2"/>
</svg>
